<?xml version="1.0" encoding="UTF-8"?><svg id="Layer_1" xmlns="http://www.w3.org/2000/svg" xmlns:xlink="http://www.w3.org/1999/xlink" viewBox="0 0 124.57 150.49"><defs><style>.cls-1{fill:url(#linear-gradient-2);}.cls-2{fill:#0e1436;}.cls-3{fill:url(#linear-gradient-6);}.cls-4{fill:url(#linear-gradient-5);}.cls-5{fill:url(#linear-gradient-7);}.cls-6{fill:url(#linear-gradient-9);}.cls-7{fill:url(#linear-gradient-3);}.cls-8{fill:url(#linear-gradient);}.cls-9{fill:url(#linear-gradient-4);}.cls-10{fill:url(#linear-gradient-8);}</style><linearGradient id="linear-gradient" x1="84.16" y1="109.09" x2="84.16" y2="89.49" gradientUnits="userSpaceOnUse"><stop offset="0" stop-color="#e11c1d"/><stop offset="1" stop-color="#f28929"/></linearGradient><linearGradient id="linear-gradient-2" x1="106.19" y1="109.5" x2="106.19" y2="89.9" xlink:href="#linear-gradient"/><linearGradient id="linear-gradient-3" x1="62.73" y1="108.03" x2="62.73" y2=".34" gradientUnits="userSpaceOnUse"><stop offset="0" stop-color="#e11c1d"/><stop offset="1" stop-color="#fbc32f"/></linearGradient><linearGradient id="linear-gradient-4" x1="106.19" y1="129.92" x2="106.19" y2="110.32" xlink:href="#linear-gradient"/><linearGradient id="linear-gradient-5" y1="129.51" y2="109.91" xlink:href="#linear-gradient"/><linearGradient id="linear-gradient-6" x1="106.47" y1="150.49" x2="106.47" y2="130.89" xlink:href="#linear-gradient"/><linearGradient id="linear-gradient-7" x1="41.15" y1="150.49" x2="41.15" y2="130.89" xlink:href="#linear-gradient"/><linearGradient id="linear-gradient-8" x1="18.82" y1="150.33" x2="18.82" y2="130.73" xlink:href="#linear-gradient"/><linearGradient id="linear-gradient-9" x1="40.96" y1="129.51" x2="40.96" y2="109.91" xlink:href="#linear-gradient"/></defs><g><rect class="cls-2" y="98.81" width="124.57" height="1.65"/><circle class="cls-8" cx="84.16" cy="99.29" r="9.8"/><circle class="cls-1" cx="106.19" cy="99.7" r="9.8"/></g><path class="cls-7" d="M106.45,37.33c-.17,11.93-1.9,14.21-12.73,18.25-7.21,2.7-14.74,4.59-22.18,6.63-2.03,.56-3.54,1.44-4.65,2.66-1.22,1.34-2.01,3.11-2.35,5.82-1.18,9.28,4.13,19.74,5.67,22.37,0,.01,.01,.03,.02,.04,.03,.05,.07,.11,.1,.16,.09,.16,.21,.37,.34,.63,.03,.06,.06,.13,.1,.2,.11,.23,.21,.46,.3,.7,.03,.07,.06,.15,.08,.23,.1,.27,.18,.54,.25,.82,.04,.14,.07,.28,.1,.43,.02,.12,.05,.24,.07,.37,0,.02,0,.04,0,.07,.02,.1,.03,.21,.04,.31,.06,.58,.12,1.69-.07,2.92-.08,.49-.2,.98-.36,1.44-.03,.09-.06,.18-.1,.26-1.07,2.73-3.81,5.54-7.46,6.24-.14,.02-.28,.05-.43,.07-.11,.02-.23,.03-.34,.04-.12,.01-.25,.02-.38,.03-.05,0-.1,0-.15,0-.14,0-.29,0-.44,0h0c-.12,0-.25,0-.37,0h-.02c-.06,0-.11,0-.18,0-.06,0-.12,0-.18-.01-.12,0-.24-.02-.36-.03-.13-.01-.25-.03-.38-.05-.15-.02-.31-.05-.46-.08-.07-.01-.13-.02-.19-.04-3.61-.84-6.19-3.72-7.12-6.42-.59-1.7-.54-3.38-.46-4.21,0-.03,0-.07,0-.11,.04-.36,.1-.72,.19-1.07,.04-.17,.08-.33,.12-.48,.02-.09,.05-.17,.08-.25,.07-.23,.16-.47,.25-.7,.03-.07,.05-.13,.08-.19,.09-.22,.4-.82,.44-.89,.01-.03,.03-.06,.05-.09,0,0,0-.02,.01-.03,0-.01,.02-.03,.02-.04,.62-1.16,6.84-13.21,5.3-22.9-.19-1.2-.5-2.36-1.21-3.55-1.37-2.31-3.72-3.83-6.54-4.7-5.48-1.68-11.09-2.92-16.52-4.7-11.48-3.77-15.13-8.7-15.41-20.8-.23-10.42,.42-20.77,3-30.95,.77-3.03,2.5-4.03,5.33-4.34,5.44-.6,10.9-.87,16.37-.87,17.47,0,34.95-.71,52.4,.83,7.22,.64,7.09,.65,8.32,7.83,1.6,9.34,2.13,18.79,1.99,28.17Z"/><path class="cls-2" d="M14.3,.53c-3.8,14.55-5.02,28.97-3.97,43.57,.55,7.64,4.28,13.21,11.19,16.79,7.18,3.72,14.85,5.84,22.61,7.8,3.75,.95,7.57,1.89,10.05,5.26,.79,1.07,1.59,2.27,1.04,3.68-.7,1.81-17.08,.13-23.72-1.48C11.28,71.26,1.41,59.47,.17,38.66-.56,26.44,1.4,14.46,3.53,2.49,3.9,.38,4.82-.11,6.72,.07c2.38,.23,4.77,.3,7.58,.46Z"/><path class="cls-2" d="M114.64,32.31c-.54-9.85-1-19.72-3.83-29.26-.51-1.72-.56-2.52,1.72-2.73,8.02-.75,7.98-.85,9.38,7.13,1.86,10.67,3.1,21.36,2.4,32.23-1.22,19.1-10.67,30.89-29.09,35.97-7.76,2.14-15.74,2.68-23.75,3.01-2.87,.12-2.77-1.15-1.92-3.14,1.52-3.57,4.67-4.99,8.03-6.01,5.48-1.66,11.1-2.9,16.49-4.79,17-5.94,20.8-11.55,20.56-29.6-.01-.93,0-1.87,0-2.8Z"/><path class="cls-2" d="M51.78,98.81c.02,.55,.04,1.1,.06,1.65-17.28,0-34.55,0-51.83,0v-1.65H51.78Z"/><rect class="cls-2" y="118.76" width="124.57" height="1.65"/><rect class="cls-2" y="139.7" width="124.57" height="1.65"/><circle class="cls-9" cx="106.19" cy="120.12" r="9.8"/><circle class="cls-4" cx="84.16" cy="119.71" r="9.8"/><circle class="cls-3" cx="106.47" cy="140.69" r="9.8"/><circle class="cls-5" cx="41.15" cy="140.69" r="9.8"/><circle class="cls-10" cx="18.82" cy="140.53" r="9.8"/><circle class="cls-6" cx="40.96" cy="119.71" r="9.8"/></svg>